<?xml version="1.0" encoding="UTF-8" standalone="no"?>
<!-- Created with Inkscape (http://www.inkscape.org/) -->

<svg width="528.76788mm" height="84.762001mm" viewBox="0 0 528.76788 84.762001" version="1.1" id="svg5"
    xml:space="preserve" inkscape:export-filename="bigbeautifulsvg.svg" inkscape:export-xdpi="4.8036203"
    inkscape:export-ydpi="4.8036203" xmlns:inkscape="http://www.inkscape.org/namespaces/inkscape"
    xmlns:sodipodi="http://sodipodi.sourceforge.net/DTD/sodipodi-0.dtd" xmlns="http://www.w3.org/2000/svg"
    xmlns:svg="http://www.w3.org/2000/svg">
    <sodipodi:namedview id="namedview7" pagecolor="#ffffff" bordercolor="#000000" borderopacity="0.25"
        inkscape:showpageshadow="2" inkscape:pageopacity="0.0" inkscape:pagecheckerboard="0"
        inkscape:deskcolor="#d1d1d1" inkscape:document-units="mm" showgrid="false" />
    <defs id="defs2" />
    <g inkscape:label="Layer 1" inkscape:groupmode="layer" id="layer1" transform="translate(597.05524,149.74629)">
        <g id="g249" transform="translate(-34.479922,-136.65823)" inkscape:export-filename="bigbeatifullsvg.svg"
            inkscape:export-xdpi="4.8036203" inkscape:export-ydpi="4.8036203">
            <path style="fill:#e6304e;stroke-width:0.264583"
                d="m -550.93561,71.616793 c -5.33168,-0.693197 -9.57857,-4.283739 -11.14017,-9.418481 -0.47476,-1.561081 -0.49755,-3.057901 -0.49948,-32.815799 -0.002,-28.0199599 0.0416,-31.3317266 0.42872,-32.6760417 1.50165,-5.2151599 5.75052,-8.8899813 11.07864,-9.5818503 1.45486,-0.188917 80.95445,-0.248981 254.26459,-0.192103 248.900409,0.08169 252.166664,0.08937 253.60314,0.596855 4.371075,1.544241 7.45318,4.6916309 8.806524,8.9930986 l 0.586184,1.8630701 V 29.341791 c 0,29.299921 -0.02593,31.040585 -0.486357,32.532449 -0.750729,2.433005 -1.689735,4.075226 -3.288612,5.751478 -1.568503,1.644433 -3.028765,2.588101 -5.353156,3.459427 l -1.455208,0.545502 -252.941675,0.03607 c -139.11793,0.01984 -253.23934,-0.0026 -253.60314,-0.04993 z m 42.87918,-20.169824 c 1.66432,-0.288542 3.97853,-0.800934 5.1427,-1.138648 l 2.11666,-0.614024 0.0689,-11.565315 0.0689,-11.565316 h -8.86633 -8.86632 v 3.96875 3.96875 h 4.10104 4.10105 v 4.607634 4.607634 l -2.05053,0.211939 c -2.85897,0.295503 -5.52564,0.237255 -7.16719,-0.156546 -3.195,-0.766471 -6.05524,-3.68613 -7.18067,-7.329863 -0.64172,-2.077657 -1.14816,-7.087544 -0.91815,-9.082712 0.45849,-3.976997 1.95223,-7.359856 4.17857,-9.463209 2.9845,-2.819619 5.46286,-3.641296 10.35984,-3.43472 3.13276,0.132154 5.21979,0.613968 8.08794,1.867191 l 0.94419,0.41256 1.51772,-3.726067 c 0.83474,-2.049337 1.42189,-3.8207696 1.30477,-3.9365177 -0.46566,-0.4601956 -5.13073,-1.8139463 -7.72128,-2.2406271 -3.58477,-0.5904351 -9.47166,-0.4111858 -12.65977,0.3854762 -6.70104,1.6744892 -11.77649,5.9778956 -14.0803,11.9385086 -1.33708,3.459424 -1.68006,6.077053 -1.52452,11.635152 0.15721,5.617596 0.58305,7.681677 2.33805,11.332856 1.28768,2.678924 4.10324,5.768723 6.61964,7.264397 1.91405,1.137655 5.11085,2.211832 7.63294,2.564791 2.53127,0.354246 8.98626,0.08879 12.45209,-0.512074 z m 33.90472,0.01566 c 2.96351,-0.770009 4.87351,-1.798246 6.75286,-3.635375 1.80342,-1.7629 2.80415,-3.584837 3.24455,-5.90709 0.78511,-4.139864 -0.20216,-8.046789 -2.72506,-10.783803 -1.67184,-1.813734 -3.81823,-3.205302 -9.04687,-5.865346 -4.98343,-2.535293 -5.85541,-3.127338 -6.73786,-4.574741 -1.1681,-1.915933 -0.3169,-4.553612 1.84307,-5.711243 1.10111,-0.59014 1.40942,-0.629348 4.10104,-0.521547 2.55619,0.102381 3.30775,0.252587 6.17509,1.234147 1.79557,0.614666 3.31175,1.070504 3.36928,1.012973 0.18584,-0.185841 3.05738,-7.1352662 2.97282,-7.1945146 -0.33295,-0.2332625 -3.09942,-1.271257 -4.85053,-1.8199449 -6.37907,-1.9987937 -13.96113,-1.5268371 -18.09585,1.1264029 -2.6153,1.6782356 -4.19885,3.9182746 -4.91386,6.9510076 -1.08296,4.593379 0.0902,8.889974 3.30641,12.10958 1.66537,1.667116 3.50571,2.803726 9.16437,5.660003 4.34475,2.193063 5.67083,3.294042 6.15502,5.11021 0.52479,1.968492 -0.37093,3.948401 -2.18019,4.819079 -3.07817,1.481322 -8.68119,0.728964 -15.49428,-2.08053 l -1.88016,-0.775306 v 4.450329 4.450328 l 1.28092,0.551037 c 1.75096,0.753243 4.82457,1.570871 7.05346,1.87633 2.80324,0.38417 8.1091,0.140751 10.50577,-0.481978 z m 42.4107,-0.0409 c 6.10061,-1.609098 10.2938,-5.714542 11.63104,-11.387661 0.33294,-1.412473 0.40053,-4.320678 0.40379,-17.373018 l 0.004,-15.6765542 h -4.75251 -4.7525 l -0.0803,15.5442702 c -0.0916,17.722871 -0.017,17.10205 -2.33264,19.417665 -1.5537,1.553702 -3.15684,2.079731 -6.33826,2.079731 -4.27377,0 -6.75036,-1.38066 -7.99387,-4.456459 -0.60322,-1.492031 -0.60533,-1.544805 -0.68123,-17.040937 l -0.0761,-15.5442702 h -4.75251 -4.7525 V 22.684885 c 0,14.64972 0.0342,15.834124 0.51114,17.69891 1.65961,6.489028 6.28344,10.406708 13.65436,11.569086 2.48316,0.391589 7.86033,0.114525 10.30826,-0.53114 z m 144.43209,0.115649 c 5.75255,-1.184786 10.21263,-4.580347 12.70196,-9.670314 1.8474,-3.777451 2.31172,-5.890797 2.47203,-11.251618 0.14674,-4.906385 -0.12319,-7.671305 -1.03799,-10.633101 -2.0551,-6.653646 -6.31341,-10.9089371 -12.7944,-12.7853538 -1.8683,-0.540924 -2.66946,-0.6093576 -7.13182,-0.6091939 -5.74174,2.109e-4 -7.27502,0.2819138 -10.87523,1.9980611 -1.49453,0.7124131 -2.7368,1.5770166 -4.10104,2.8542556 -4.30784,4.033136 -6.33361,9.560948 -6.33918,17.298063 -0.004,5.816066 0.65017,9.16359 2.5684,13.139351 1.6542,3.428524 4.51086,6.345312 7.76684,7.930306 2.53837,1.23567 4.7721,1.866027 7.67292,2.165294 2.49161,0.257051 6.71621,0.0547 9.09751,-0.43575 z m -9.55101,-7.881305 c -3.87827,-1.259933 -6.07867,-4.099449 -7.10612,-9.170146 -0.55944,-2.760959 -0.39614,-9.520732 0.29011,-12.008908 0.96518,-3.499509 2.67622,-5.761241 5.35682,-7.080898 1.72613,-0.849775 1.85326,-0.871008 5.21442,-0.871008 3.22948,0 3.53859,0.04591 4.93816,0.733409 2.76582,1.358662 4.82227,4.373851 5.65097,8.285591 0.51205,2.417043 0.51427,8.443658 0.004,11.110126 -0.79444,4.152228 -2.64681,6.898889 -5.64962,8.377166 -1.61756,0.796324 -1.97549,0.867227 -4.66789,0.924669 -1.90886,0.04072 -3.30104,-0.06289 -4.03092,-0.300001 z m 96.08503,7.802287 c 3.54328,-0.939853 5.79985,-2.226381 8.38338,-4.779544 1.94498,-1.922134 2.46041,-2.627567 3.48485,-4.769329 2.022,-4.227335 2.42515,-6.334135 2.43025,-12.7 0.004,-5.07905 -0.0406,-5.584528 -0.70244,-7.949054 -0.38873,-1.388803 -1.0033,-3.195574 -1.36573,-4.015046 -1.66925,-3.774507 -4.71331,-6.978044 -8.24621,-8.6782571 -3.59717,-1.7311362 -4.86754,-1.9650086 -10.71563,-1.9727167 -4.61301,-0.00608 -5.38353,0.057855 -7.27604,0.6037398 -2.40408,0.6934432 -5.44613,2.2458801 -7.17188,3.659988 -2.55111,2.09046 -4.92492,6.106692 -5.92841,10.030293 -1.19039,4.654341 -1.18224,12.010043 0.0185,16.721889 1.99393,7.824345 7.32962,12.748265 15.41913,14.22922 2.85257,0.522221 9.02435,0.320635 11.67021,-0.381183 z m -10.18982,-7.79399 c -3.67871,-0.991893 -5.89867,-3.573645 -7.17767,-8.347506 -0.70241,-2.62188 -0.77353,-8.967988 -0.13298,-11.870327 0.86773,-3.931743 3.10539,-7.073135 5.88786,-8.265845 3.39785,-1.456486 8.03798,-1.170294 10.97769,0.677077 3.52282,2.213808 5.2514,7.372172 4.91749,14.674635 -0.28239,6.175589 -1.81848,9.910434 -4.88545,11.878511 -2.32362,1.491059 -6.62157,2.053002 -9.58694,1.253455 z m 58.8885,7.802851 c 1.30969,-0.278947 2.97657,-0.731433 3.70417,-1.005525 l 1.32292,-0.498345 0.073,-4.026929 c 0.0402,-2.214809 0.007,-4.026927 -0.0745,-4.026927 -0.0812,0 -1.30467,0.343739 -2.71889,0.763863 -3.58659,1.065474 -6.18498,1.433925 -9.24547,1.310999 -2.30976,-0.09277 -2.83898,-0.209423 -4.37041,-0.963353 -2.70772,-1.333 -4.27178,-3.436376 -5.27018,-7.087433 -0.47192,-1.725649 -0.57505,-2.83832 -0.58645,-6.327201 -0.0201,-6.157229 0.87622,-9.206132 3.57452,-12.158511 1.78564,-1.95376 3.56253,-2.796889 6.28814,-2.983709 3.11351,-0.213405 5.01435,0.239281 10.10549,2.406634 l 0.95028,0.404543 1.49712,-3.759944 c 0.82341,-2.067971 1.49712,-3.8389727 1.49712,-3.9355605 0,-0.2467128 -3.95894,-1.7455104 -6.34185,-2.4009423 -2.76249,-0.759832 -10.1318,-0.8188761 -12.69286,-0.1016974 -4.82769,1.3519288 -8.4604,3.9416742 -11.00407,7.8448132 -2.56892,3.941921 -3.56741,7.503919 -3.75756,13.405003 -0.27882,8.652552 1.47111,14.322718 5.74767,18.623785 2.80845,2.824509 5.8496,4.315984 10.19958,5.002164 2.3258,0.366877 8.33314,0.104053 11.10221,-0.485727 z m 37.44548,0.482174 c 7.25088,-0.901827 12.30453,-4.36277 15.195734,-10.406694 2.942855,-6.151827 3.228949,-15.95429 0.670269,-22.965246 -1.725423,-4.727768 -4.738983,-8.104518 -9.045393,-10.1355355 -3.11033,-1.466914 -4.63481,-1.7744884 -9.47338,-1.9113084 -5.42086,-0.1532853 -8.30207,0.3473153 -11.84563,2.0581297 -1.86333,0.8996055 -2.72137,1.5297252 -4.44082,3.2611362 -2.55111,2.568836 -4.03879,5.23559 -5.07561,9.098313 -0.63918,2.38125 -0.69196,2.996211 -0.70924,8.261305 -0.0164,5.039683 0.0468,5.932517 0.55531,7.827465 1.24568,4.642096 2.69049,7.211827 5.59564,9.9524 2.21531,2.089806 3.57987,2.89818 6.60056,3.910208 3.70708,1.241978 7.64871,1.587606 11.97256,1.049827 z m -7.41527,-8.401891 c -5.36731,-1.780876 -7.70802,-6.857873 -7.32848,-15.895418 0.20915,-4.980008 1.08818,-7.777874 3.22958,-10.279631 1.96779,-2.298903 6.05118,-3.55678 9.70561,-2.989775 2.50134,0.388096 3.87506,1.023937 5.50391,2.547543 2.58623,2.419096 3.70605,6.079066 3.70605,12.11255 0,7.661955 -1.82727,11.913645 -6.00387,13.969773 -1.54432,0.760269 -1.99231,0.852199 -4.53557,0.930695 -2.20086,0.06793 -3.14232,-0.01918 -4.27723,-0.395737 z M -245.67078,33.244395 -245.6028,14.922 h 6.09761 6.09761 l -0.12379,-3.902604 c -0.0681,-2.1464327 -0.13394,-3.9323701 -0.14629,-3.9687503 -0.0124,-0.03638 -7.58299,-0.066146 -16.82356,-0.066146 h -16.80104 V 10.95325 14.922 h 6.08541 6.08542 v 18.394645 18.394648 l 4.69635,-0.07225 4.69636,-0.07225 z m 185.213611,14.419791 0.07324,-3.902604 h -9.002924 -9.002898 V 25.373041 6.9844998 h -4.762501 -4.7625 l -0.05763,10.3848952 c -0.05831,10.506239 -0.05673,13.023898 0.01667,26.725298 l 0.04082,7.609152 13.692188,-0.06853 13.692188,-0.06853 0.07321,-3.902604 z m -322.732601,-3.99538 v -7.765695 l 4.16719,-0.154834 c 7.70247,-0.286189 12.07931,-2.13885 14.84798,-6.28496 1.64314,-2.460623 2.25868,-4.760548 2.26311,-8.455901 0.006,-4.649814 -1.0587,-7.54835 -3.68282,-10.030138 -1.64437,-1.5551773 -3.46077,-2.5141976 -6.1776,-3.2616376 -1.84025,-0.506282 -2.88875,-0.5671838 -11.484,-0.6670505 l -9.45886,-0.1099008 V 29.186594 51.434499 h 4.7625 4.7625 z m 0,-22.264515 V 14.922 h 3.12698 c 3.87291,0 5.58522,0.44786 6.95699,1.819632 1.12245,1.122447 1.55652,2.42784 1.55041,4.662659 -0.004,1.535348 -0.53465,3.130196 -1.36726,4.110757 -1.33416,1.571223 -3.92484,2.371535 -7.67687,2.371535 h -2.59025 z m 39.15834,21.563541 v -8.466666 h 2.44784 2.44785 l 5.29077,8.466666 5.29076,8.466667 h 5.25196 5.25195 l -0.489,-0.733576 c -0.26896,-0.403468 -3.13815,-4.68838 -6.37599,-9.522028 -3.23784,-4.833649 -5.88698,-8.837957 -5.88698,-8.898459 0,-0.0605 0.67905,-0.493236 1.50899,-0.961628 1.89367,-1.068718 4.22048,-3.406809 5.18498,-5.210122 1.35012,-2.524294 1.68239,-5.750232 0.96769,-9.395124 -0.80767,-4.119038 -3.95835,-7.1944637 -8.85228,-8.6408495 -2.92603,-0.8647776 -5.79025,-1.0882127 -13.94983,-1.0882127 h -7.61371 v 22.2249992 22.225 h 4.7625 4.7625 z m 0,-22.0875 v -6.028569 l 3.37343,0.1333 c 5.19119,0.205126 7.28728,1.245296 8.02418,3.981939 0.38766,1.439665 0.1989,3.303604 -0.4648,4.589598 -1.04655,2.02783 -3.25946,2.914039 -7.9447,3.181633 l -2.98811,0.170664 z"
                id="path251" />
        </g>
    </g>
</svg>